# xmcd CD database file
#
# Track frame offsets:
#	150
#	27427
#	45517
#	58881
#	84268
#	110730
#	134187
#	157972
#	179974
#	200188
#	243028
#	257455
#	282494
#	304859
#
# Disc length: 4375 seconds
#
# Revision: 0
# Processed by: cddbd v1.5.1PL0 Copyright (c) Steve Scherf et al.
# Submitted via: CDex 1.51
#
DISCID=d211150e
DTITLE=Count Basie and Oscar Peterson - Yessir, That's My Baby and The Timekeepers
DYEAR=1978
DGENRE=Jazz
TTITLE0=Blues For Roy
TTITLE1=Teach Me Tonight
TTITLE2=Blues For C.T.
TTITLE3=Yesser, That's My Baby
TTITLE4=Tea For Two
TTITLE5=After You've Gone
TTITLE6=Poor Butterfly
TTITLE7=I'm Confessin' (That I Love You)
TTITLE8=Soft Winds
TTITLE9=Rent Party
TTITLE10=(Back Home Again In) Indiana
TTITLE11=Hey, Raymond
TTITLE12=After You've Gone
TTITLE13=That's the One
EXTD=YEAR: 1978
EXTT0=
EXTT1=
EXTT2=
EXTT3=
EXTT4=
EXTT5=
EXTT6=
EXTT7=
EXTT8=
EXTT9=
EXTT10=
EXTT11=
EXTT12=
EXTT13=
PLAYORDER=
